HIERARCHY
ROOT Hips
{
	OFFSET	0.00	0.00	0.00
	CHANNELS 6 Xposition Yposition Zposition Zrotation Xrotation Yrotation
	JOINT LeftUpLeg
	{
		OFFSET	 0.126116	-0.014019	-0.065224
		CHANNELS 3 Zrotation Xrotation Yrotation
		JOINT LeftLeg
		{
			OFFSET	 0.000000	 0.000000	 0.569914
			CHANNELS 3 Zrotation Xrotation Yrotation
			JOINT LeftFoot
			{
				OFFSET	 0.000000	 0.000000	 0.544423
				CHANNELS 3 Zrotation Xrotation Yrotation
				JOINT LeftToeBase
				{
					OFFSET	 0.000000	 0.000000	 0.207117
					CHANNELS 3 Zrotation Xrotation Yrotation
					End Site
					{
						OFFSET	 0.000000	 0.000000	 0.207117
					}
				}
			}
		}
	}
	JOINT RightUpLeg
	{
		OFFSET	-0.124023	-0.008373	-0.065224
		CHANNELS 3 Zrotation Xrotation Yrotation
		JOINT RightLeg
		{
			OFFSET	 0.000000	 0.000000	 0.570047
			CHANNELS 3 Zrotation Xrotation Yrotation
			JOINT RightFoot
			{
				OFFSET	 0.000000	 0.000000	 0.544354
				CHANNELS 3 Zrotation Xrotation Yrotation
				JOINT RightToeBase
				{
					OFFSET	 0.000000	 0.000000	 0.207540
					CHANNELS 3 Zrotation Xrotation Yrotation
					End Site
					{
						OFFSET	 0.000000	 0.000000	 0.207540
					}
				}
			}
		}
	}
	JOINT Spine
	{
		OFFSET	 0.000184	-0.007763	 0.117403
		CHANNELS 3 Zrotation Xrotation Yrotation
		JOINT Spine1
		{
			OFFSET	 0.000000	 0.000000	 0.137269
			CHANNELS 3 Zrotation Xrotation Yrotation
			JOINT Spine2
			{
				OFFSET	 0.000000	 0.000000	 0.156879
				CHANNELS 3 Zrotation Xrotation Yrotation
				JOINT LeftShoulder
				{
					OFFSET	 0.080501	-0.002496	 0.160144
					CHANNELS 3 Zrotation Xrotation Yrotation
					JOINT LeftArm
					{
						OFFSET	 0.000000	 0.000000	 0.164363
						CHANNELS 3 Zrotation Xrotation Yrotation
						JOINT LeftForeArm
						{
							OFFSET	 0.000000	 0.000000	 0.364576
							CHANNELS 3 Zrotation Xrotation Yrotation
							JOINT LeftHand
							{
								OFFSET	 0.000000	 0.000000	 0.360812
								CHANNELS 3 Zrotation Xrotation Yrotation
								JOINT LeftHandIndex1
								{
									OFFSET	 0.000000	 0.000000	 0.086006
									CHANNELS 3 Zrotation Xrotation Yrotation
									JOINT LeftHandIndex2
									{
										OFFSET	 0.000000	 0.000000	 0.047236
										CHANNELS 3 Zrotation Xrotation Yrotation
										JOINT LeftHandIndex3
										{
											OFFSET	-0.004284	-0.000551	 0.038166
											CHANNELS 3 Zrotation Xrotation Yrotation
											End Site
											{
												OFFSET	-0.004284	-0.000551	 0.038166
											}
										}
									}
								}
							}
						}
					}
				}
				JOINT Neck
				{
					OFFSET	 0.000000	 0.000000	 0.176489
					CHANNELS 3 Zrotation Xrotation Yrotation
					JOINT Head
					{
						OFFSET	 0.000000	-0.001747	 0.077940
						CHANNELS 3 Zrotation Xrotation Yrotation
						End Site
						{
							OFFSET	 0.000000	-0.001747	 0.077940
						}
					}
				}
				JOINT RightShoulder
				{
					OFFSET	-0.080363	 0.000306	 0.159706
					CHANNELS 3 Zrotation Xrotation Yrotation
					JOINT RightArm
					{
						OFFSET	 0.000000	 0.000000	 0.164196
						CHANNELS 3 Zrotation Xrotation Yrotation
						JOINT RightForeArm
						{
							OFFSET	 0.000000	 0.000000	 0.365611
							CHANNELS 3 Zrotation Xrotation Yrotation
							JOINT RightHand
							{
								OFFSET	 0.000000	 0.000000	 0.360648
								CHANNELS 3 Zrotation Xrotation Yrotation
								JOINT RightHandIndex1
								{
									OFFSET	 0.000000	 0.000000	 0.069977
									CHANNELS 3 Zrotation Xrotation Yrotation
									JOINT RightHandIndex2
									{
										OFFSET	 0.000000	 0.000000	 0.052305
										CHANNELS 3 Zrotation Xrotation Yrotation
										JOINT RightHandIndex3
										{
											OFFSET	 0.009002	-0.000782	 0.042196
											CHANNELS 3 Zrotation Xrotation Yrotation
											End Site
											{
												OFFSET	 0.009002	-0.000782	 0.042196
											}
										}
									}
								}
							}
						}
					}
				}
			}
		}
	}
}
MOTION
Frames:    8
Frame Time: 0.03333334
 0.000188	 0.047214	 1.268438	-0.039252	 3.285170	 0.801652	 11.946470	-9.896131	 177.320700	 2.230347	-18.505540	 0.840652	 0.809273	 73.210510	-0.931290	-2.385833	 28.452750	 0.000004	-4.649002	-9.094903	-178.325900	-0.672132	-16.590610	 1.279902	 6.053904	 72.089540	 0.228896	 2.384659	 28.388700	-0.000001	 0.767261	 8.039426	-0.411586	 1.464944	-8.752899	 0.335674	-3.758047	 12.977750	 0.984927	-90.990600	 68.581470	-177.435000	-5.739541	 0.208459	-21.060310	 24.988010	-0.117930	-0.884383	-6.547849	-11.198610	-4.458239	-2.027600	 6.559038	 9.033609	-5.188889	 0.308190	 3.541030	-5.234859	 0.342567	 0.430617	 4.696542	 21.028670	-7.703706	-8.814774	-15.375190	 1.638345	 88.754620	 66.910280	 176.870600	 9.856533	 8.191339	 21.236690	-27.759660	-0.171798	 0.891349	 3.453913	-10.612060	 5.553738	 1.803333	 3.979147	-15.098590	 4.898592	 3.004813	-9.310344	 5.224449	 0.395017	 2.014677
-0.000272	 0.051186	 1.264850	 0.026368	 4.065714	 0.886942	 12.114260	-12.034520	 177.382600	 2.222583	-20.704520	 0.952349	 1.951679	 74.113340	-2.183882	-2.385833	 28.452750	 0.000004	-5.117956	-11.208290	-178.621600	-0.614143	-18.810370	 1.464065	 5.752884	 73.003880	 0.591831	 2.384659	 28.388700	-0.000001	-0.229426	 8.566795	-0.421309	 1.445275	-10.769960	 0.305986	-3.736966	 15.374340	 1.156429	-90.889600	 67.878360	-177.239600	-5.006803	 0.342627	-22.492880	 24.150950	-0.104028	-1.104263	-5.420887	-12.361790	-4.924904	-2.027600	 6.559038	 9.033609	-5.188889	 0.308190	 3.541030	-5.234859	 0.342567	 0.430617	 4.731456	 23.178270	-8.323412	-8.472781	-16.779520	 1.569359	 88.559970	 65.551460	 176.551100	 9.313841	 8.255555	 22.675550	-27.308590	-0.160886	 1.110085	 2.000733	-11.155890	 5.233748	 1.803333	 3.979147	-15.098590	 4.898592	 3.004813	-9.310344	 5.224449	 0.395017	 2.014677
-0.001293	 0.061233	 1.257851	 0.175268	 5.904482	 1.084085	 12.551970	-16.391010	 177.619800	 2.329367	-24.401580	 1.135141	 5.033838	 75.439210	-5.520039	-2.385832	 28.452790	-0.000001	-6.181358	-15.423530	-179.315500	-0.889537	-22.413890	 1.625630	 4.656318	 74.367010	 2.251755	 2.384659	 28.388700	-0.000001	-2.376850	 9.371297	-0.461272	 1.331260	-14.339130	 0.300973	-3.639552	 19.452560	 1.351057	-90.833370	 66.136210	-177.349100	-3.422467	 0.976039	-24.998370	 21.342090	-0.058149	-1.577351	-4.436502	-14.369950	-6.316746	-2.027600	 6.559038	 9.033609	-5.188889	 0.308190	 3.541030	-5.234859	 0.342567	 0.430617	 4.423814	 25.918670	-8.802842	-7.695516	-18.498850	 1.325062	 88.394910	 62.761550	 176.551300	 7.209336	 8.533304	 24.993690	-25.696980	-0.124411	 1.581274	-0.583754	-11.936440	 5.205173	 1.803333	 3.979147	-15.098590	 4.898592	 3.004813	-9.310344	 5.224449	 0.395017	 2.014677
-0.002238	 0.078744	 1.248038	 0.582446	 8.885981	 1.197571	 12.775670	-22.833970	 178.306700	 2.298674	-29.086660	 1.320709	 10.801170	 76.443180	-11.679170	-2.385833	 28.452760	 0.000004	-7.667995	-21.572710	 179.703800	-1.185121	-26.713790	 1.782946	 1.939091	 75.654500	 5.790895	 2.384659	 28.388700	-0.000001	-5.448432	 9.750823	-0.474233	 1.119479	-18.061240	 0.357830	-3.275325	 23.134980	 1.453682	-91.559780	 64.819520	-179.429900	-1.556404	 3.461062	-25.782500	 18.100130	 0.019951	-2.218847	-4.216807	-15.815270	-8.310850	-2.027600	 6.559038	 9.033609	-5.188889	 0.308190	 3.541030	-5.234859	 0.342567	 0.430617	 3.685144	 26.970490	-8.737848	-6.466490	-19.183870	 1.116285	 89.048510	 60.930970	 178.294600	 3.446060	 9.970356	 21.708990	-23.436800	-2.158639	 9.617200	-3.390976	-12.677090	 5.508098	 1.803333	 3.979147	-15.098590	 4.898592	 3.004813	-9.310344	 5.224449	 0.395017	 2.014677
-0.002884	 0.097613	 1.239994	 0.871755	 11.876520	 1.087993	 13.069260	-28.543180	 179.368700	 2.381299	-32.161630	 1.490165	 16.559660	 76.530660	-18.052370	-2.385832	 28.452790	-0.000001	-8.668878	-27.278140	 178.890600	-1.381925	-29.713100	 1.867859	-2.124664	 76.200020	 10.661410	 2.384659	 28.388700	-0.000001	-8.276338	 9.783008	-0.259262	 0.877491	-20.372310	 0.180751	-2.589267	 25.088890	 1.715326	-92.598130	 65.111360	 177.804700	-0.594740	 7.519156	-25.458350	 17.314620	 0.092461	-2.798222	-3.399290	-16.499110	-9.039574	-2.027600	 6.559038	 9.033609	-5.188889	 0.308190	 3.541030	-5.234859	 0.342567	 0.430617	 3.115542	 25.282510	-9.029950	-5.196404	-18.320110	 0.961089	 90.073180	 60.283010	-179.337700	 0.115679	 12.269720	 18.692590	-20.917710	-2.997909	 15.436970	-4.551385	-13.561990	 5.708298	 1.803333	 3.979147	-15.098590	 4.898592	 3.004813	-9.310344	 5.224449	 0.395017	 2.014677
-0.006447	 0.128255	 1.231434	 2.494644	 17.573890	 1.024193	 11.730350	-37.555630	-179.405000	 3.565263	-34.525660	 2.259255	 20.456790	 74.596770	-23.927390	-2.385833	 28.452750	 0.000004	-11.490630	-35.913440	 176.680100	-0.803392	-32.280810	 2.322579	-9.676582	 75.062710	 18.849470	 2.384659	 28.388700	-0.000001	-12.119360	 8.904723	-0.053708	-0.349164	-21.761890	-0.292831	-1.638381	 24.983580	 1.106203	-93.696030	 65.408640	 174.800700	 1.738572	 12.316810	-26.018180	 16.404650	 0.210046	-3.523705	-2.235208	-16.415930	-9.517820	-2.027600	 6.559038	 9.033609	-5.188889	 0.308190	 3.541030	-5.234859	 0.342567	 0.430617	 2.591110	 24.267830	-8.265497	-3.702125	-18.229400	 0.621411	 91.346680	 60.710770	-176.390400	-4.415894	 15.988000	 17.514320	-18.170630	-3.025018	 20.241420	-5.493677	-13.893470	 6.304837	 1.803333	 3.979147	-15.098590	 4.898592	 3.004813	-9.310344	 5.224449	 0.395017	 2.014677
-0.011207	 0.153676	 1.230023	 4.143704	 22.098260	 0.538002	 9.392428	-43.120990	-178.981000	 4.315168	-33.745720	 2.632640	 20.722310	 72.480090	-25.477430	-2.385833	 28.452750	 0.000004	-13.110680	-41.593010	 175.432700	-1.477869	-32.710660	 1.984317	-13.140770	 74.005520	 23.633940	 2.384659	 28.388700	-0.000001	-16.009500	 9.953130	 0.245744	-1.671919	-20.235860	-0.269697	-0.283862	 23.767390	-0.124469	-94.402470	 66.716640	 172.385500	 3.663115	 16.069250	-29.091640	 15.548460	 0.372404	-4.304513	-1.444171	-16.867360	-9.889566	-2.027600	 6.559038	 9.033609	-5.188889	 0.308190	 3.541030	-5.234859	 0.342567	 0.430617	 2.018362	 23.433200	-6.663796	-2.236883	-18.680370	-0.098383	 92.369090	 61.830360	-173.796600	-7.787716	 20.023740	 18.903270	-16.140290	-3.210763	 26.983140	-5.645534	-14.146400	 6.996957	 1.803333	 3.979147	-15.098590	 4.898592	 3.004813	-9.310344	 5.224449	 0.395017	 2.014677
-0.014775	 0.171275	 1.226824	 4.178894	 23.796530	 0.207317	 8.942760	-46.047130	-178.720700	 4.352444	-34.756130	 2.722972	 21.953770	 72.250310	-27.163850	-2.385833	 28.452750	 0.000004	-12.813200	-44.760920	 175.349600	-1.714218	-34.105110	 1.925984	-14.816080	 73.856120	 25.788350	 2.384659	 28.388700	-0.000001	-18.683520	 12.148100	 0.562898	-2.001002	-16.277040	 0.304110	 1.274042	 22.359880	-1.081837	-94.559180	 69.018990	 170.636100	 4.438505	 17.957230	-33.315980	 14.692870	 0.543309	-4.983363	-1.219763	-17.972580	-10.047220	-2.027600	 6.559038	 9.033609	-5.188889	 0.308190	 3.541030	-5.234859	 0.342567	 0.430617	 1.381289	 22.255970	-6.037955	-0.790881	-19.029820	-0.224100	 92.897480	 63.197560	-172.125400	-8.965799	 22.847350	 22.388110	-14.319410	-2.868962	 32.218120	-4.264153	-15.256070	 7.971187	 1.803333	 3.979147	-15.098590	 4.898592	 3.004813	-9.310344	 5.224449	 0.395017	 2.014677
